<svg xmlns="http://www.w3.org/2000/svg" viewBox="0 0 300 300"><defs><style>.a,.b,.c,.d{fill-rule:evenodd;}.b{fill:#010101;}.c,.e{fill:#ff7979;}.d{fill:#fff;}</style></defs><title>Office worker</title><path class="a" d="M46.008,231.109a9.232,9.232,0,0,0-5.716,8.541v27.008H13.009v-27.19a9.213,9.213,0,0,1,9.211-9.211H46.008Z"/><path class="a" d="M42.411,235.212c-1.573,3-1.135,3.506-1,12.656.013,1.57.093,18.664-.033,19.148a1.151,1.151,0,0,1-.35.518c-.552.393,1.85.267-28.015.267a1.152,1.152,0,0,1-1.128-.964c-.02-.249-.034-27.468.013-28.164a10.321,10.321,0,0,1,6.434-8.734c2.607-1,3.017-.738,16.267-.587,12.445.178,11.486.125,11.781.268a.713.713,0,0,1,.355.637c-.011.966-.006.8-.019.971a.717.717,0,0,1-.428.539l-.009-.011A8.421,8.421,0,0,0,42.411,235.212Zm-8.382-4.227v.178L22.22,231.3a8.163,8.163,0,0,0-7.9,6.537c-.206,1.1-.166-1.189-.166,27.674h25c0-26.493-.013-27.623,1.022-29.742a10.11,10.11,0,0,1,4.426-4.789Z"/><path class="a" d="M191.685,93.186l.419.318c.2,1.064.086-.108-.382,3.658-.388,2.514-.622,6.872-.654,7.25-.5,8.889.816,18.516,8.916,22.284,2.239.953,2.754.653,3.348,1.267.362.558.214.247.276,3.911,0,4.882.35,13.6.337,14.013a.839.839,0,0,1-.765.744,25.284,25.284,0,0,0-3.343.55l-.544-.114-.313-.444v-.008l.106-.531.456-.323h0c.9-.216,1.732-.485,2.676-.67,0-.116-.958-8.345-.958-15.49-4.466-1.176-8.026-4.114-10.28-9.085a26.113,26.113,0,0,1-2.123-8.5,44.331,44.331,0,0,1,.332-11.419,49.031,49.031,0,0,1,1.63-6.884l.341-.432.515-.09Z"/><path class="a" d="M228.681,98.841a7.528,7.528,0,0,1,5.439,6.818,7.666,7.666,0,0,1-.032,1.048,7.454,7.454,0,0,1-1.069,3.132c-2.185,3.212-5.263,4.292-9.091,4.864a83.61,83.61,0,0,1-4.384,11.929c.121,5.577.03,9.347.373,16.33,1.013.121,1.976.291,2.966.486,1.215.244.917.141,1.492.519l.129.529c-.008.011-.3.449-.3.461a1.627,1.627,0,0,1-1.129.047c-4.13-.564-4-.192-4.55-.572h0c-.336-.319-.336-.14-.884-6.618-.424-6.291-.331-7.291-.415-10.95a1.8,1.8,0,0,1,.231-1.265,74.41,74.41,0,0,0,4.379-12.131c.3-1.262,1.1-.862,3.252-1.309a10.081,10.081,0,0,0,5.31-2.684,5.314,5.314,0,0,0-.838-7.9,7.5,7.5,0,0,0-3.146-1.41,18.138,18.138,0,0,0-2.864-.385l-.5-.233-.2-.483v-.008l.216-.48.5-.222h0A14.926,14.926,0,0,1,228.681,98.841ZM217.549,125.49l-.037.046-.013.012.069-.073Zm.1-.091c-.115.1-.036.032.078-.059Z"/><path class="a" d="M198.441,97.938l.364.318.129.555c0,3.829-1.036,4.309-.811,11.574,3.192-.027,2.508-.17,3.4.131l.271.444v.007l-.156.5-.489.309h0a33.315,33.315,0,0,1-3.928.844,1.176,1.176,0,0,1-.861-.2,1.23,1.23,0,0,1-.359-.448c-.437-1.333-.3-8.043.566-11.2,0-.082.488-1.28.488-1.288.041-.082.46-.96.511-1.044v0l.4-.409.47-.085Zm-1.469,12.446Z"/><path class="a" d="M211.5,112.4c.315.481.392.388.557,1.921a6,6,0,0,1-1.271,4.273,4.812,4.812,0,0,1-2.708,1.836,4.929,4.929,0,0,1-4.923-1.657,4.753,4.753,0,0,1-.668-1.327c0-.722-.1-.44.239-.978h0c1.643.4.479.092,2.105.985a4.837,4.837,0,0,0,1.833.761,2.653,2.653,0,0,0,2.561-1.453,8.943,8.943,0,0,0,1.142-3.537c.013-.228-.027-.07.207-.713l.433-.27h0Z"/><path class="a" d="M210.958,92.457a6.559,6.559,0,0,1,1.5,1.429,1.926,1.926,0,0,1,.506,1.077l-.179.465-.01.005-.469.143a2.285,2.285,0,0,1-.926-.428,12.171,12.171,0,0,0-1.861-.851,4.175,4.175,0,0,0-3.233-.229h0a3.209,3.209,0,0,0-.414.2h0a2.808,2.808,0,0,0-.309.21s-.669.349-.834.446c-.614.314.109.136-1.367.45-.2-.945-.339-.96.124-1.871a2.722,2.722,0,0,1,1.2-1.236v0a5.172,5.172,0,0,1,.732-.359h0A6.426,6.426,0,0,1,210.958,92.457Z"/><ellipse cx="207.905" cy="101.833" rx="2.114" ry="2.763"/><path class="a" d="M228,99.969c1.483-8.415,2.482-19.545-6.259-24.365-3.468-1.915-7.364-2.417-11.1-3.566-2.628-5.384-8.25-13.781-14.024-15.341a16.758,16.758,0,0,0-18.054,7c-4.964,7.362-3.8,17.977,4.854,21.86,6.73,3.018,16.453,2.05,23.742.617,2.243-.441,4.361,1.384,6.544,2.05,1.147,5.541,4.5,9.319,9.958,10.687C225.213,99.3,228,99.969,228,99.969Z"/><path class="b" d="M196.838,55.551c6.178,1.659,11.729,9.775,14.623,15.518,4.513,1.248,8.556,1.874,12.108,4.3,7.744,5.557,6.884,15.4,5.14,24.725-.114-.02-1.539-.27.009,0a.725.725,0,0,1-.53.576c-.265.047.088.109-3.376-.687a16.959,16.959,0,0,1-5.7-2.073c-3.453-2.161-5.2-5.074-6.226-8.938-1.67-.6-3.352-1.757-4.846-1.832-1.246-.055-18.442,4.735-27.978-2.22-7.75-6-6.838-17.421-.972-23.789A17.793,17.793,0,0,1,196.838,55.551Zm-7.9,2.2c-10.507,2.733-14.582,14.234-10.722,21.452,3.441,7.261,14.423,7.731,22.429,6.9,6.216-.687,6.241-1.227,8.028-.959,1.942.344,3.308,1.421,5.227,2.126,1.155.358.4.982,1.865,4.263a12.225,12.225,0,0,0,1.81,2.843c2.708,3.161,6.1,3.755,9.842,4.695,0-.833,1.938-9.893-.774-16.327a11.96,11.96,0,0,0-3.357-4.687c-3.418-2.923-8.27-3.515-12.624-4.8-1.431-.433-.487-.238-3.5-5.1-2.412-3.743-6.432-9.011-10.7-10.293A14.615,14.615,0,0,0,188.94,57.755Z"/><path class="b" d="M109.53,35.579A48.22,48.22,0,0,1,137.8,67.76h0a47.964,47.964,0,0,1-6.8,41.558,47.354,47.354,0,0,1-16.784,14.659,48.206,48.206,0,0,1-10.4,4.043,48.91,48.91,0,0,1-38.89-6.176C29.242,97.907,38.539,46.487,75.791,34.364A48.233,48.233,0,0,1,109.53,35.579Zm-25.82.672A45.079,45.079,0,1,0,129.227,105.2,45.774,45.774,0,0,0,135.3,67.788l-.019.006C128.4,45.431,105.7,32.076,83.71,36.251Zm54.084,31.51h0C137.581,67.071,137.6,67.125,137.794,67.761Z"/><path class="b" d="M89.479,62.364c.319,2.542,1.326,15.155,1.363,15.688.1,1.263.253,3.766.254,3.774,2.944.221,10.346-.179,14.949-.156,1.276.009.961-.034,1.6.225l.23.488v.007l-.2.5c-.793.38.111.137-3.693.537-5.258.553-8.886,1.027-13.812.67a1.258,1.258,0,0,1-1.184-.59c-.179-.362-.14-.248-.248-2.114C88.1,70.419,87.092,66.288,87.384,57.88c.021-.519-.035-.277.23-.915l.465-.23h.005C88.96,57.076,88.714,56.555,89.479,62.364Z"/><path class="b" d="M57.489,80.617a10.2,10.2,0,0,1,1.437.294c.288.073.107,0,.783.338l.253.405c-.267.529-.1.353-.75.758a10.382,10.382,0,0,1-1.562.464,5.778,5.778,0,0,1-1.133.076c-3.007.128-2.523.36-3.412.051-.45-.148-.151.012-1.175-.667.659-.984.471-.772.852-1.068a2.3,2.3,0,0,1,.829-.416A30.048,30.048,0,0,1,57.489,80.617Z"/><path class="b" d="M128.75,78.431a3.182,3.182,0,0,1,1.023.12c.079.019.474.138.52.155.675.24.336.022,1.294.859-.834.882-.583.722-1.266.965-.991.394-2.181.12-3.933.213a1.21,1.21,0,0,1-.816-.212c-.378-.181-.083.01-1.082-.711.684-.958.531-.784.843-1.022a1.382,1.382,0,0,1,.926-.377C127.156,78.378,127.793,78.4,128.75,78.431Z"/><path class="b" d="M87.733,41.033a5.354,5.354,0,0,1,.512.985,13.733,13.733,0,0,1,.179,1.436c.241,2.323.585,3.5-.129,5.407l-.382.3H87.9l-.438-.2-.373-.558a15.145,15.145,0,0,1-.617-1.757c-.1-.451-.46-3.731-.46-3.846a2.054,2.054,0,0,1,.11-1.142c.321-.7-.137-.113.834-1.268Z"/><path class="b" d="M92.058,120.734a5.55,5.55,0,0,1-.76-2.582c-.369-2.36-.318-1.843-.138-2.525.24-.562.074-.261.783-1.187a3.729,3.729,0,0,1,1.174,1.1c.228.334.176.272.323,1.206.334,2.323.453,2.382.216,3.593-.092.469,0,.257-.691,1.251C92,120.785,92.169,120.959,92.058,120.734Z"/><path class="c" d="M206.008,202.445s-.12,8.81-.341,12.819c9.81,1.746,19.481,4.118,29.273,5.96,2.8.526,5.559,1.966,8.387,1.589,15.073-2.016,30.368-2.052,45.557-2.748a4.144,4.144,0,0,0,3.869-4.9c-2.054-10.988-4.813-21.785-10.082-31.793-10.32-19.6-30.276-34.527-52.314-38.109a1.755,1.755,0,0,0-1.676.677c-4.606,6.064-11.422,12.1-19.016,13.472-4.5.811-12.016.144-14.121-4.774a10.973,10.973,0,0,1-.391-6.384,1.757,1.757,0,0,0-2.179-2.023c-12.4,3.371-24.1,8.369-34.564,16.066-3.721,2.738-7.848,5.74-10.851,9.286a9.7,9.7,0,0,1,3.418,8.775c2.081,2.207,3.127,5.117,1.929,8.039,4.735,7.758-5,14.317-10.855,17.662,5.02,9.709,16.953,27.759,17.146,28.247.056.142,1.581,31.459,1.631,31.5a.1.1,0,0,0,.078.024c9.018-.913,18.127.194,27.186.012,13.089-.264,26.625-.792,39.737-.816a.1.1,0,0,0,.023-.2c-9.022-2.395-21.563-6.423-28.679-12.173-6.7,2.583-14.751,1.356-21.263-1.325-4.735-1.948-8.327-7.054-1.115-8.693-3.15-2.749-6.636-8.083-.53-9.477-3.518-2.917-8.713-10.588-.981-11.944-.9-5.2-2.21-10.513-3.619-15.61-10.092-.941-9.415-7.448-5.7-9,5.42-2.264,13.268-.906,19.089-.928-.52-2.953-1.008-5.932-1.308-8.917-.1-1.007-.414-2.563.281-3.441,1.479-1.869,4.836-2.192,6.945-2.8,6.006-1.721,12.638-4.628,19.021-4.017,2.662.255,5.223,2.275,2.754,4.768-1.455,1.468-3.854,1.97-5.756,2.556-1.981.61-3.906,1.4-5.891,2.01-3.067.948-6.185,1.573-9.312,2.289a56.742,56.742,0,0,0,.773,6.881,83.188,83.188,0,0,1,14.6.6,22.41,22.41,0,0,1,6.01,1.095c2.077.877,2.911,3.412.59,4.6C211.488,202.464,208.536,202.447,206.008,202.445Z"/><path class="a" d="M205.7,216.785a46.14,46.14,0,0,1,8.387.673c10.554,1.71,27.528,6.012,30.774,6.71,0-.952-.071-.6.184-1.294l.479-.247h.01l.506.181c.356.684.228.312.345,1.309.078.987.215,1.5-.465,1.816-.278.077-.1.084-2.044-.178-11.55-1.616-19.848-4.528-32.078-6.293-1.267-.183-4.795-.861-7.189-1.223-.217-.032-.093.015-.649-.294l-.176-.487v-.008l.24-.459C204.669,216.74,204.3,216.781,205.7,216.785Z"/><path class="a" d="M246.3,223.89c.411.023,3.272.693,3.952.861a7.956,7.956,0,0,1,2.238.812,3.623,3.623,0,0,1,1.262.834l.138.474,0,.008-.35.349-.649.136c-2.588,0-2.55-.289-6.259-1.051a3.465,3.465,0,0,1-1.727-.676c-.319-.2-.147-.02-.825-.973.949-.672.738-.568,1.106-.646A4.39,4.39,0,0,1,246.3,223.89Z"/><path class="a" d="M289.294,222.615c.344.67.242.136.406,2.8a42.574,42.574,0,0,1-.535,8.879,36.09,36.09,0,0,1-10.008,19.551c-7.491,7.772-18.208,11.722-28.9,12.244-11.17.5-20.239-2.478-30.479-6.91-6.657-2.892-13.892-6.014-19.32-10.565a34.17,34.17,0,0,1-8.009,1.82c-5.842.558-12.068-.306-16.359-4.2l-.005,0-.239-.49.156-.51c.014-.009.473-.238.488-.245.586.178.482.122.668.278a13.538,13.538,0,0,0,1.75,1.169c6.266,3.339,14.221,2.349,20.868-.043,2.417-.905.291.461,10.768,5.972,5.483,2.781,15.761,7.377,23.036,9.433,28.507,7.812,52.568-7.841,54.525-32.948.3-5.712-.251-4.9.18-6.154l.488-.249h0Z"/><path class="a" d="M175.377,224.607c.526.317,1.7.86,2.15,1.106.423.228.3.176.733.426a15.624,15.624,0,0,0,5.48,1.914,17.189,17.189,0,0,0,5.421-.155c1.241-.276.452-.244,1.446-.234l.4.333.005.007,0,.52a1.692,1.692,0,0,1-.838.728,10.063,10.063,0,0,1-3.546,1.18,16.432,16.432,0,0,1-9.156-2.072,7.031,7.031,0,0,1-2.2-1.653c-.3-.319-.766-.916-.848-1.038v0l-.188-.539.133-.462,0-.006.446-.179Z"/><path class="a" d="M176.735,236.047c4.277.679,4.817,1.6,10.377,1a28.158,28.158,0,0,0,3.5-.549h0l.581.049.368.355,0,.007-.033.515c-.394.427-.224.379-1.487.984a11.389,11.389,0,0,1-4.136,1.108,19.576,19.576,0,0,1-4.647-.161,9.049,9.049,0,0,1-5.126-2.011v0l-.341-.466-.014-.474,0-.007.368-.3.572-.052Z"/><path class="a" d="M205.161,208.542l.009,0,.3.445a1.546,1.546,0,0,1-.323.96,16.783,16.783,0,0,1-8.087,6.25h0c-4.743,1.94-9.71,3.211-14.807,2.675a13.457,13.457,0,0,1-4.932-1.741c-.181-.1-.086-.012-.5-.519V216.1l.382-.333c.6-.021.49-.039.6-.006a21.134,21.134,0,0,0,4.554.787c3.962.317,7.809-.04,13.794-2.491a24.933,24.933,0,0,0,6.936-4.089c1.551-1.581.725-.989,1.547-1.513Z"/><path class="a" d="M103.968,190.875l.009,0,.355.4-.009.546,0,0a64.145,64.145,0,0,0-3.7,29.672,37.738,37.738,0,0,0,2.805,10.473c3.228,7.378,9.027,11.671,17.077,12.783,10.54,1.455,24.971-3.3,33.773-11.444,1.041-.965.6-.693,1.321-.994l.512.2,0,0,.212.5-.2.52v0c-10.918,11.444-31.547,18.193-45.06,10.544-15.893-9.05-16-37.2-8.037-52.862.007-.005.408-.358.414-.364Z"/><path class="a" d="M147.09,196.282l0,.006.175.474-.179.528v0a21.71,21.71,0,0,1-2.957,3.137v0a21.713,21.713,0,0,1-3.611,2.312h0c-.354.179-.054.038-.829.41-2.757,1.248-2.508.836-2.469,1.191.912,6.19,1.205,5.551,2.317,12.47.424,2.963.4,2.418.235,3.144l-.438.308-.009,0-.52-.12-.327-.466,0,0c-.892-3.444-2.941-9.032-3.7-16.221h0c-.027-1.143.779-1.207,1.745-1.527a21.142,21.142,0,0,0,2.93-1.252h0a64.03,64.03,0,0,0,6.47-4.276c.209-.162.065-.092.691-.3Z"/><path class="a" d="M142.415,179.016l.009,0,.217.469-.143.558a15.513,15.513,0,0,1-3.754,4.164,30.23,30.23,0,0,1-5.78,3.487,8.305,8.305,0,0,1-3.3.941,2.149,2.149,0,0,1-1.188-.073l-.323-.353c0-.011.076-.465.078-.476l.4-.411c.026-.01,1.584-.917,1.649-.951a38.922,38.922,0,0,0,5.379-2.824c1.248-.817,4.4-3.261,5.462-4.2.352-.314.157-.19.793-.473Z"/><path class="a" d="M144.814,186.843l0,.006.221.466-.134.561a17.494,17.494,0,0,1-3.532,4.259,22.3,22.3,0,0,1-5.637,3.582,7.31,7.31,0,0,1-3.422.775,2.144,2.144,0,0,1-1.207-.2c-.008-.011-.278-.381-.285-.393l.133-.456.442-.366c.4-.155,1.736-.83,2.045-.955a19.038,19.038,0,0,0,5.214-2.791c.722-.543,4.144-3.446,5.126-4.376l.529-.243Z"/><path class="a" d="M140.536,170.492l0,.006.171.511-.23.514c-.607.355-7.119,8.146-17.791,10.817-5.85,1.473-13.348,1.016-16.6-3.965a8.272,8.272,0,0,1-.824-1.7c-.04-.117-.02,0,0-.611l.35-.381.009,0,.512,0c.451.389.383.3.446.411.114.033,1.291,3.145,7.088,4.36,8.9,1.78,18.758-4.331,25.842-10v0l.539-.174Z"/><path class="a" d="M115.758,181.824c-5.936-10.983-7.3-15.8-9.151-18.991,1.511-1.8,3.035-3.563,4.675-5.247,6.779.894,13.6,1.578,20.374,2.557.921,4.856,3.408,9.187,4.7,13.913-3.128,3.2-7.332,4.938-11.533,6.195a26.326,26.326,0,0,1-8.833,1.511"/><path class="a" d="M111.433,156.433c7.163.934,12.809,1.5,19.109,2.378,1.5.208,1.528.172,1.916.491.419.468.263.522.621,1.912,1.157,4.468,3.09,7.919,4.256,12.079.17.6.243.751.065,1.237a6.271,6.271,0,0,1-1.364,1.381,20.922,20.922,0,0,1-4.182,2.727,42.993,42.993,0,0,1-13.526,3.844,15.214,15.214,0,0,1-2.4-.013c-.546.048-.227.082-.8-.306-.119-.213-3.755-6.327-6.5-12.171-.973-2.081-1.466-3.62-2.7-6a3.259,3.259,0,0,1-.451-.91c-.121-.771.276-1.039.815-1.675,1.514-1.792,2.366-2.731,3.385-3.824C110.407,156.8,110.636,156.39,111.433,156.433Zm.231,2.431c-2.049,2.177-3.5,3.933-3.652,4.1.989,1.706,2.608,6.281,8.156,18.071,4.314.031,11.533-2.515,14.867-4.379l0,0a19.042,19.042,0,0,0,4.03-2.928c0-.684-2.962-7.318-4.154-11.6l0-.01c-.1-.4-.128-.513-.225-.925C130.685,161.078,111.717,158.808,111.664,158.864Z"/><path class="d" d="M131.168,174.992c-.554-.46-.329-.092-1.957-2.655-.07-.128-.483-.788-.732-1.3-.336-.7-1.269-2.7-1.557-3.42-.977-2.255-.968-1.992.078-3.525.361-.545.68-.98.728-1.065a12.745,12.745,0,0,1,1.759-1.689l.534-.235.461.081.009,0,.212.417c-.081.721.041.383-.728,2.127a20.63,20.63,0,0,1-1.308,2.047c1.472,3.649,1.721,3.19,3.326,8.186l.014.623L131.7,175l-.009,0Z"/><path class="a" d="M210.457,178.171l.29.427c0,.883-.542.794-4.85,2.024,0,.277-2.754.282-17.657,4.781.033,1.048.184,4.6.184,9.771,0,4.217.138,3.279-.157,4.1l-.479.253h0l-.507-.186-.267-.508c0-.512-.857-5.859-1.064-12.466-.063-2.042-.111-1.9.06-2.334.346-.583.056-.423,5.329-1.977,13.634-3.952,14.116-3.382,14.116-3.554.117-.015,3.555-.482,4.472-.482Z"/><path class="a" d="M198.648,198.539c6.254.087,5.134.145,11.583.145l.534.2.244.48v.008l-.188.506-.507.257c0,.114-6.4.6-11.974.727-19.646.09-20.5,1.186-27.233.533-1.362-.132-2.825-.4-2.943-.415l-.479-.279-.165-.49V200.2l.253-.452a1.67,1.67,0,0,1,1.1-.191C173.681,199.525,186.745,198.367,198.648,198.539Z"/><path class="a" d="M203.9,210.523c.124-3.67.5-7.325.69-10.992-6.627.076-13.25.33-19.872.384a94.026,94.026,0,0,0-10.225.388c1.147,5.491,2.455,10.874,3.772,16.314,2.22.356,4.343,1.219,6.623,1.166,4.831-.112,10.174-2.128,14.351-4.379a24.732,24.732,0,0,0,4.845-2.8"/><path class="a" d="M205.589,199.061h0c.139.367.136.352-.009,1.911-.951,10.146-1.088,8.709-.779,9.673-.245.524-.182.468-.446.69a21.235,21.235,0,0,1-3.98,2.424,49.513,49.513,0,0,1-5.549,2.761,35.391,35.391,0,0,1-5.559,1.8,16.492,16.492,0,0,1-9.418-.188c-2.135-.5-1.98-.3-2.446-.735-.229-.306-.078.462-1.98-7.638-.342-1.43-1.109-4.733-1.741-7.673-.348-1.625-.51-1.851-.134-2.466.405-.477.667-.462,1.294-.53,2.008-.207,3.672-.269,5.7-.307C206.5,198.38,205.053,198.1,205.589,199.061ZM175.9,201.329c.668,3.275,2.512,10.964,3.321,14.281,3.35.648,3.966,1.347,7.82.9,5.975-.721,11.094-3.551,14.028-4.917a13.651,13.651,0,0,0,2.119-1.2c0-4.4.181-6.816.262-9.707C199.36,200.843,178.859,201.066,175.9,201.329Z"/><path class="a" d="M90.573,161.118a.71.71,0,0,1,.589.7c.491,47.584.545,45.579,0,46.12h0a1.112,1.112,0,0,1-.714.264c-2.569.011-48.395.1-48.938-.04a1.174,1.174,0,0,1-.6-.5c-.232-.507-.151,2.767-.151-45.841A1.142,1.142,0,0,1,41.7,160.7C45.664,160.345,90.459,161.108,90.573,161.118Zm-47.529,1.846v42.983c25.2,0-37.863.029,46.3.034.113.058-.093,1.794.391-43.445C63.179,163.029,64.139,162.964,43.044,162.964Z"/><path class="a" d="M105.027,236.884c1.021.348.329-.026,1.29.526l.221.429v.007l-.244.415-.562.284c-2.817.563-.5.343-5.379.473a2.982,2.982,0,0,1-1.658-.182c-.656-.3-.324-.045-1.23-.915.862-.9.561-.653,1.188-.965a2.992,2.992,0,0,1,1.64-.263C103.961,236.6,103.575,236.566,105.027,236.884Z"/><path class="a" d="M93.714,252.525a2.372,2.372,0,0,1,1.152.142,61.438,61.438,0,0,1,7.847,4.725c2.183,1.481,2.708,1.6,2.561,2.638a1.144,1.144,0,0,1-.414.657c-.342.224-.4.224-1.083.312-4.257.554-8.449-.308-12.794-.742-8.916-.864-14.516-2.529-21.761-3.578-2.3-.342-2.342-.391-3.431-.615l-.456-.318-.11-.534c.007-.012.305-.443.313-.455l.488-.1.018-.014a89.767,89.767,0,0,1,11.938-1.6C82,252.744,90.068,252.516,93.714,252.525Zm-.4,2.325c-6.591.014-13.386.406-16.953.548-3.516.143-3.208.06-1.921.255,2.3.352,7.146,1.1,10.059,1.488,0,.113,13.417,1.685,16.22,1.713a66.4,66.4,0,0,0-6.429-3.874C94,254.831,94.169,254.848,93.314,254.85Zm.308-.232.014.006-.018-.015Z"/><path class="a" d="M85.573,239.7A56.663,56.663,0,0,1,93,240.1c1.363.134.976.044,1.644.35l.222.48v.007l-.222.48-.534.24c-.48,0-2.2.279-5.955.372-2.251.059-1.352-.16-9.584.144h0a16.313,16.313,0,0,1-6.286-.592l-.466-.317-.156-.47v-.008l.262-.419C73.469,239.785,84.013,239.694,85.573,239.7Z"/><path class="a" d="M47.8,248.494c.684.022,1.249.15,3.583.213,3.446.074,4.409-.145,6.406-.06,3.22.149,2.7.1,3.4.367l.262.449v.008l-.2.481-.534.292a31.7,31.7,0,0,1-9.151.793c-4.156-.086-4.748-.406-6.117-1-.15-.063-.052,0-.552-.42l-.129-.459c.007-.012.277-.374.285-.385l.548-.185C45.726,248.578,47.525,248.481,47.8,248.494Z"/><path class="a" d="M294.724,263.91l.276.5v.008l-.267.508-.645.222h0l-6.581.481-28.733.417-15.019.2-14.411.172-18.293.171-21.572.2-48.211.452-47.068.442-20.14.189-16.3.153-7.437.041-8.051.024-16.179.01L6.17,268.071H5.718l-.5-.209L5,267.367v-.008l.207-.5.5-.218h0l.456-.01,19.918-.408,16.175-.3,8.05-.127,7.443-.1,16.294-.153,20.14-.189,47.064-.441,48.215-.452,21.568-.2,18.293-.172,14.415-.1,15.019-.083,28.734-.122,6.581-.091h0Z"/><path class="d" d="M18.843,237.225c7.083.134,7.5.142,10.268.718a1.971,1.971,0,0,1,.948.381l.2.472v.008l-.257.444a1.944,1.944,0,0,1-.982.269,29.9,29.9,0,0,1-5.729.138,47.134,47.134,0,0,1-5.419-.2c-1.621-.372-1.506-.383-2.03-.7l-.2-.418v-.007l.217-.41.508-.285A9.4,9.4,0,0,1,18.843,237.225Z"/><path class="d" d="M36.766,249.36c2.3.17,1.7.027,2.5.351l.253.466v.008l-.217.484-.543.266h0c-5.642.783-4.37.552-14.874.859a19.405,19.405,0,0,1-4.966-.28h0l-.512-.246-.227-.434v-.008l.191-.451.492-.285c.4-.061.444-.13,1.856-.377a15.834,15.834,0,0,1,3.1-.243C34.387,249.167,33.116,249.187,36.766,249.36Z"/><path class="d" d="M37.269,260.9h0c.6.427.452.244.684.786v0c-1,.8-.637.6-1.4.8-.844.255-1.6.211-4.284.264h0a1.421,1.421,0,0,1-.662-.07c-.822-.336-.737-.347-1.467-1.093.771-.751.639-.71,1.45-1.073.331-.106.129-.074,1.026-.1C35.438,260.359,35.634,260.238,37.269,260.9Z"/><path class="a" d="M235.147,194.964c.943.618.68.331,1.423,4.195,1.257,6.768,1.988,9.749,2.584,13.548.737,4.723.786,4.239.078,4.792l-.009,0-.52-.1-.355-.457c0-.115-.019.039-.9-2.842-1.554-5.369-1.343-5.284-3.289-15.157-.5-2.721-.175-1.828-1.243-2.941-.212-.214-.649-.647-.751-.746l0,0a5.749,5.749,0,0,0-1.147-.918l-.364-.426-.027-.5,0-.007.364-.347.557-.045A12.342,12.342,0,0,1,235.147,194.964Z"/><path class="d" d="M122.855,164.079c3.108.411,1.916.155,3.588.612,1.127.394.622.112,1.358.595l.18.424v.007l-.225.4-.507.254a8.2,8.2,0,0,1-2.929.192c-1.544-.177-7.152-.93-8.682-1.269-2.754-.6-2.133-.386-2.827-.775l-.189-.468v-.008l.239-.446a2.111,2.111,0,0,1,1.2-.275C117.169,163.122,117.914,163.4,122.855,164.079Z"/><path class="a" d="M160.317,205.605l.442.211.248.494c.522,4.069.379.868.466,14.209a76.541,76.541,0,0,1-.392,8.544l-.235.544-.474.228h-.005l-.474-.227c-.251-.58-.242-.184-.479-3.389-.222-3.116-.272-2.776-.272-14.933a26.232,26.232,0,0,1,.465-4.99l.258-.489.447-.2Z"/><circle class="e" cx="66.795" cy="161.757" r="5.527"/><path class="a" d="M67.439,155.492a6.292,6.292,0,0,1,5.117,9.665,6.69,6.69,0,0,1-11.353.273v0a6.4,6.4,0,0,1,4.012-9.8A9.988,9.988,0,0,1,67.439,155.492Zm-.64,1.463a4.687,4.687,0,0,0-4.389,4.35c0,5.193,5.894,6.405,8.2,2.576a4.3,4.3,0,0,0,.336-.776,4.905,4.905,0,0,0-4.145-6.161Zm.055-1.443.023,0h0Z"/><path class="a" d="M83.239,199.282c4.743.169,6.763-.139,10.988.181,2.49.194,1.991.123,2.589.4l.211.46v.008l-.2.462c-.638.314-.139.2-2.566.466a77.71,77.71,0,0,1-10.293.331c-1.451,7.828-2.954,13.4-7.369,20.27-.24.373-.1.235-.645.626l-.524-.059,0,0v0L75.11,222c.072-.667.021-.479.216-.866a59.475,59.475,0,0,0,2.611-6.075c4.567-12.434,3.245-14.626,4.394-15.578A1.276,1.276,0,0,1,83.239,199.282Z"/><path class="a" d="M85.546,229.267a10.407,10.407,0,0,1,5.748,1.78,10.217,10.217,0,0,1,3.375,3.77c1.521,3.089,1.193,4.058,1.193,13.622-.02,6.121.033,5.571-.161,6a1.122,1.122,0,0,1-1.312.524c-.446-.182-.246-.155-.526-.159-4.184-.036-12.456.152-20.434.706,4.78.876,8.148,1.507,12.135,2.119,8.9,1.334,9.778.746,9.87,1.892H95.42c.1,8.063.126,7.266.055,7.561a.809.809,0,0,1-.345.434c-.114.056,1.8.435-54.838.435a1.144,1.144,0,0,1-1.128-.945c-.014-.2-.042-27.345.018-28.194a10.4,10.4,0,0,1,9.068-9.469C49.312,229.225,85.432,229.266,85.546,229.267Zm-6.365,2.287c-30.681,0-30.463-.3-32.7.6a8.112,8.112,0,0,0-4.6,4.862c-.621,1.583-.442,1.321-.442,28.654,28.848,0,24.155-.056,52.457.315l.014.017,0-5.852c-6.279-.721-5.031-.251-19.781-2.691-3.6-.59-7.319-.855-8.534-1.213a.955.955,0,0,1,.3-1.843c.116-.006,10.153-1.756,27.624-1.831.123,0,.05.974.05-13.07a8.13,8.13,0,0,0-6.12-7.7C86.144,231.458,85.377,231.554,79.181,231.554Zm14.471,23.03.009.006-.014-.013Z"/><path class="d" d="M192.072,60.308a6.794,6.794,0,0,1,2.063.413c.439.16.272.074.774.477l.129.454v.007l-.277.378c-.859.308-.358.116-1.492.3h0a11.653,11.653,0,0,0-4.933,1.447h0a11.352,11.352,0,0,0-2.519,1.97v0a22.062,22.062,0,0,0-3.173,3.934l-.433.368-.506.009-.01,0-.336-.383a2.032,2.032,0,0,1,.221-1.293,11.28,11.28,0,0,1,2.607-4.235v0a14.191,14.191,0,0,1,3.007-2.346h0A10.53,10.53,0,0,1,192.072,60.308Z"/><path class="d" d="M180.139,77.359h0a2.694,2.694,0,0,1-.184-.35,9.275,9.275,0,0,1-.323-2.459,1.578,1.578,0,0,1,.193-.341l.005,0a2.509,2.509,0,0,1,.23-.266c1.708.094,1.3,0,1.612.312l0,0a1.457,1.457,0,0,0,.124.16c.023.039.04.063.065.1v0a14.334,14.334,0,0,0,.308,1.937,3.607,3.607,0,0,1-.594,2.08C180.6,77.951,180.679,78.073,180.139,77.359Z"/><path class="d" d="M183.464,155.7l.378.363c0,.012-.018.52-.019.531l-.387.405v0c-1.325.644-3.442,1.747-4.573,2.359-3.647,2.06-4.209,2.015-9.427,5.251-4.363,2.7-5.676,4.048-9.7,6.373v0l-.539.12c-.015-.007-.437-.217-.451-.226l-.124-.481.23-.5c0-.116,2.216-2.193,2.671-2.588a82.981,82.981,0,0,1,16.364-9.806c4.5-1.824,5.015-1.714,5.015-1.828Z"/></svg>